<svg id="Layer_1" data-name="Layer 1" xmlns="http://www.w3.org/2000/svg" viewBox="0 0 113.39 113.39"><defs><style>.cls-1{fill:#f39100;}.cls-2{fill:#fff;}</style></defs><title>kpl_icon_checkmark</title><path class="cls-1" d="M56.69,113.39A56.69,56.69,0,1,0,0,56.69a56.69,56.69,0,0,0,56.69,56.69" transform="translate(0 0)"/><path class="cls-2" d="M45.61,103.75a5,5,0,0,1-4-2l-28-37.65a5,5,0,0,1,8-6L44.57,89C50.43,76.18,62.22,51,69.5,38.82c9.69-16.17,11.84-19.38,11.92-19.51a5,5,0,0,1,8.3,5.58C89.63,25,87.5,28.23,78.07,44s-27.72,56.42-27.9,56.83a5,5,0,0,1-4,2.92Z" transform="translate(0 0)"/></svg>