<svg id="Layer_1" data-name="Layer 1" xmlns="http://www.w3.org/2000/svg" viewBox="0 0 97.78 51.14"><defs><style>.cls-1{fill:#1a1a18;}.cls-2{fill:#cd1316;}</style></defs><title>kpl_foto_price_medium</title><path class="cls-1" d="M7.64,8.66V0h2.91l1.36,5.89h0L13.38,0h2.82V8.66H14.43V2h0L12.74,8.66H11L9.43,2h0V8.66Z"/><path class="cls-1" d="M17.67,8.66V0H22.4V1.33H19.49V3.47h2.69V4.8H19.49V7.33h3V8.66Z"/><path class="cls-1" d="M23.71,0h3c2.38,0,2.82,1.58,2.82,4.28,0,1.33.2,4.38-2.89,4.38h-3Zm1.81,7.33h.88c1.1,0,1.32-.83,1.32-3,0-1.59,0-3-1.26-3h-.94Z"/><path class="cls-1" d="M31,8.66V0h1.81V8.66Z"/><path class="cls-1" d="M40.2,0V6.14c0,1.29-.73,2.66-2.94,2.66-2,0-3-1-3-2.66V0h1.81V6c0,1.07.46,1.49,1.12,1.49S38.38,7,38.38,6V0Z"/><path class="cls-1" d="M41.64,8.66V0h2.91l1.36,5.89h0L47.37,0h2.82V8.66H48.43V2h0L46.74,8.66H45L43.43,2h0V8.66Z"/><path class="cls-1" d="M11.75,16.17l1.8,5.77H13l-.46-1.52H10.29l-.46,1.52H9.32l1.82-5.77ZM12.41,20l-1-3.26h0l-1,3.26Z"/><path class="cls-1" d="M14.21,21.95V16.17h1.61c.9,0,1.37.37,1.37,1.38,0,.7-.11,1.18-.84,1.38v0c.76.16,1,.66,1,1.39,0,1-.5,1.61-1.46,1.61Zm1.5-3.21c.74,0,1-.5,1-1.16,0-1-.53-1-.94-1h-1v2.13Zm-1,2.77h.82c.85,0,1.25-.29,1.25-1.14,0-.51-.15-1.21-1-1.21h-1Z"/><path class="cls-1" d="M19.9,19.06c0-1.56,0-3,1.74-3,1.4,0,1.42,1.15,1.42,1.67h-.51c0-.64-.18-1.24-.91-1.24-1.22,0-1.23,1-1.23,2.57s0,2.57,1.23,2.57c.66,0,.91-.59.92-1.33h.54c0,.42-.1,1.77-1.46,1.77C19.91,22.06,19.9,20.62,19.9,19.06Z"/><path class="cls-1" d="M26,16.17l1.8,5.77h-.54l-.46-1.52H24.51l-.46,1.52h-.51l1.82-5.77ZM26.64,20l-1-3.26h0l-1,3.26Z"/><path class="cls-1" d="M28.48,21.34h.59v.61h-.59Z"/><path class="cls-1" d="M34.71,20.2c0,.93-.23,1.83-1.43,1.83-1,0-1.44-.45-1.42-1.42h.51c0,.63.23,1,.9,1,.84,0,.93-.74.93-1.4s-.06-1.39-.94-1.39a.86.86,0,0,0-.87.58h-.46v-3h2.57v.43H32.4v2a1.25,1.25,0,0,1,1-.42C34.75,18.38,34.71,19.53,34.71,20.2Z"/><path class="cls-1" d="M38.19,18.56v1.21c0,1,0,2.27-1.42,2.27s-1.42-1.22-1.42-2.27V18.56c0-1,0-2.27,1.42-2.27S38.19,17.51,38.19,18.56Zm-2.33,1.7c0,1.26.55,1.35.91,1.35s.91-.1.91-1.35V18.07c0-1.25-.55-1.35-.91-1.35s-.91.1-.91,1.35Z"/><path class="cls-1" d="M40.89,21.95V16.17h.87l1.7,5.21h0l1.68-5.21H46v5.77h-.51V16.67h0l-1.7,5.28h-.59l-1.74-5.28h0v5.28Z"/><path class="cls-1" d="M48.38,19.28H46.72V19c.72-1.12,1.35-1.87,1.35-2.3s-.28-.49-.53-.49a.52.52,0,0,0-.53.59h-.28a.76.76,0,0,1,.81-.84c.38,0,.83.12.83.68s-.24.74-1.33,2.38h1.33Z"/><path class="cls-1" d="M2.79,38.57v-1.5h-1l.38-1.64.64,0V35c0-3,1.3-4.46,3.86-4.46,2.76,0,3.68,1.26,3.68,3.72H7.91c0-1-.24-1.52-1.18-1.52-1.1,0-1.28.76-1.28,2v.66h3.2l-.38,1.66H5.43v1.5h2.5l-.38,1.68H5.45v.5c0,1.52.24,2.14,1.34,2.14.94,0,1.18-.44,1.18-1.58h2.42c0,2.54-1.12,3.7-3.7,3.7-2.92,0-3.88-1.3-3.88-4.24v-.52h-1l.38-1.68Z"/><path class="cls-1" d="M18.53,36.39l0,0a2.32,2.32,0,0,1,2-.94c2.3,0,3,1.58,3,4.6,0,3.74-1.4,4.8-4.26,4.8-2.32,0-3.78-1-3.7-3.46h2.82a2,2,0,0,0,.2,1,.92.92,0,0,0,.86.42c1.12,0,1.26-.86,1.26-2.76,0-.9.08-2.8-1.2-2.8-.82,0-1.06.92-1.06,1.56H15.77v-8.1h7.3v2.16H18.53Z"/><path class="cls-1" d="M27.29,41.44a1.91,1.91,0,0,0,.2,1,.91.91,0,0,0,.84.44c1.4,0,1.24-1.14,1.24-4.46a3.14,3.14,0,0,1-2.32.92c-2.14,0-3-1.92-3-3.78,0-2.74.84-5,4-5,4.14,0,4.12,3.3,4.12,7.22,0,3.44-.06,7.1-4.14,7.1-2.42,0-3.82-.82-3.76-3.46Zm1-4c1.2,0,1.26-1.62,1.26-2.48s0-2.42-1.24-2.42S27.11,34.11,27.11,35,27.11,37.4,28.31,37.4Z"/><path class="cls-1" d="M36.17,41.44a1.91,1.91,0,0,0,.2,1,.91.91,0,0,0,.84.44c1.4,0,1.24-1.14,1.24-4.46a3.14,3.14,0,0,1-2.32.92c-2.14,0-3-1.92-3-3.78,0-2.74.84-5,4-5,4.14,0,4.12,3.3,4.12,7.22,0,3.44-.06,7.1-4.14,7.1-2.42,0-3.82-.82-3.76-3.46Zm1-4c1.2,0,1.26-1.62,1.26-2.48s0-2.42-1.24-2.42S36,34.11,36,35,36,37.4,37.19,37.4Z"/><path class="cls-1" d="M43,42.08h2.62l-1.52,4.58H42.17Z"/><path class="cls-1" d="M56.11,40.12h-10V38.53h10Z"/><rect class="cls-2" x="-2.18" y="38.79" width="56.74" height="1" transform="translate(-13.59 13.85) rotate(-23.71)"/><path class="cls-2" d="M57.14,29.81c3.36-7.9,3.36-7.94,3.38-8h3.7v8.62h1.1v2.16h-1.1v3.18H61.46V32.63H57.14Zm4.56.66.18-6.66h0L59.3,30.47Z"/><path class="cls-2" d="M65.82,35.81V33.35c4.4-5.86,5.32-6.54,5.32-8.28,0-.7-.26-1.36-1.06-1.36-1.16,0-1.22,1.1-1.22,2H66c-.2-2.6,1.26-4,3.84-4,2.42,0,4.08,1,4.08,3.6,0,3.14-3.66,6.7-5.18,8.38H74.1v2.16Z"/><path class="cls-2" d="M74.7,35.81V33.35C79.1,27.49,80,26.81,80,25.07c0-.7-.26-1.36-1.06-1.36-1.16,0-1.22,1.1-1.22,2H74.92c-.2-2.6,1.26-4,3.84-4,2.42,0,4.08,1,4.08,3.6,0,3.14-3.66,6.7-5.18,8.38H83v2.16Z"/><path class="cls-2" d="M84.66,33.17h2.62l-1.52,4.58H83.84Z"/><path class="cls-2" d="M97.78,31.21h-10V29.63h10Z"/></svg>