<svg id="Layer_1" data-name="Layer 1" xmlns="http://www.w3.org/2000/svg" viewBox="0 0 113.39 113.39"><defs><style>.cls-1{fill:#f39100;}.cls-2{fill:#fff;}</style></defs><title>kpl_icon_camera</title><path class="cls-1" d="M56.69,113.39A56.69,56.69,0,1,0,0,56.69a56.69,56.69,0,0,0,56.69,56.69"/><polygon class="cls-2" points="60.22 46.38 53.17 46.38 28.5 99.21 32.03 99.21 41.89 78.08 44.48 78.08 53.17 59.47 53.17 78.08 54.93 78.08 54.93 99.21 58.45 99.21 58.45 78.08 60.22 78.08 60.22 59.56 68.98 78.08 71.49 78.08 81.36 99.21 84.88 99.21 60.22 46.38"/><path class="cls-2" d="M61.14,41.18A10.57,10.57,0,1,1,71.71,30.62,10.57,10.57,0,0,1,61.14,41.18M49.27,24.68h-3v-3h3Zm22.25-5.93-2.38-5.95a2.33,2.33,0,0,0-2.07-1.46v4.44a1.48,1.48,0,0,1-1.48,1.48h-8.9a1.48,1.48,0,0,1-1.48-1.48V11.35a2.33,2.33,0,0,0-2.07,1.46l-2.38,5.95H49.27V17.27a1.48,1.48,0,0,0-1.48-1.48H40.37a1.48,1.48,0,0,0-1.48,1.48V41a1.48,1.48,0,0,0,1.48,1.48h3A1.48,1.48,0,0,0,44.82,41V36.55h3v3a3,3,0,0,0,3,3H71.53a3,3,0,0,0,3-3V21.72a3,3,0,0,0-3-3m-5.93-7.41h-8.9v4.45h8.9ZM61.14,23.2a7.41,7.41,0,1,0,7.42,7.41,7.42,7.42,0,0,0-7.42-7.41"/></svg>