<svg id="Layer_1" data-name="Layer 1" xmlns="http://www.w3.org/2000/svg" viewBox="0 0 113.39 113.39"><defs><style>.cls-1{fill:#f39100;}.cls-2{fill:#fff;}</style></defs><title>kpl_icon_dialogue_bubbles</title><path class="cls-1" d="M56.69,113.39A56.69,56.69,0,1,0,0,56.69a56.69,56.69,0,0,0,56.69,56.69" transform="translate(0 0)"/><path class="cls-2" d="M97.51,68.88a38.11,38.11,0,0,1-7.32-4.75C96.48,59.43,100,53,100,46.23c0-13.79-14.69-25-32.74-25-11.19,0-21.08,4.31-27,10.88-15.66,2.11-27,12.4-27,24.62,0,6.77,3.57,13.2,9.85,17.89a38.23,38.23,0,0,1-7.32,4.75,1.5,1.5,0,0,0,.27,2.8,30.21,30.21,0,0,0,7.07.83,21.88,21.88,0,0,0,7.32-1.15A14.9,14.9,0,0,0,34,80a41.58,41.58,0,0,0,12,1.75c10.86,0,20.89-4.06,27-10.88a40.57,40.57,0,0,0,6.27-1.35,14.87,14.87,0,0,0,3.5,1.86,21.87,21.87,0,0,0,7.32,1.16,30.26,30.26,0,0,0,7.07-.83,1.5,1.5,0,0,0,.26-2.8ZM68.41,71.23c-5.61,4.75-13.67,7.5-22.33,7.5a38.46,38.46,0,0,1-11.86-1.83,1.5,1.5,0,0,0-1.37.24A12.52,12.52,0,0,1,29.52,79a20.9,20.9,0,0,1-8.5.88,30.21,30.21,0,0,0,5.62-4.43,1.5,1.5,0,0,0-.26-2.29C20,69,16.34,63,16.34,56.71c0-9.91,8.77-18.4,21.32-21.12-.39.63-.73,1.27-1,1.92l-.1.21q-.21.44-.4.89L36,39c-.1.27-.21.53-.3.8l-.17.5c-.08.24-.15.48-.22.72s-.11.41-.16.62-.11.43-.15.65-.09.48-.13.72-.07.38-.1.57-.07.58-.09.87,0,.3,0,.45c0,.44,0,.89,0,1.34,0,13.79,14.69,25,32.74,25Zm15.46-2.7a12.5,12.5,0,0,1-3.33-1.88,1.5,1.5,0,0,0-1.37-.24,37.55,37.55,0,0,1-7,1.53h0c-.76.09-1.53.16-2.29.21l-.31,0c-.75,0-1.5.07-2.25.07-16.4,0-29.74-9.87-29.74-22,0-.47,0-.94.07-1.41,0-.11,0-.23,0-.34,0-.41.1-.82.18-1.22l0-.17a17.09,17.09,0,0,1,.86-3v0a19.82,19.82,0,0,1,3.43-5.62l0,0c5.28-6.15,14.56-10.24,25.11-10.24,16.4,0,29.74,9.88,29.74,22,0,6.27-3.66,12.27-10,16.46A1.5,1.5,0,0,0,86.75,65a30.21,30.21,0,0,0,5.62,4.43A20.85,20.85,0,0,1,83.87,68.53Z" transform="translate(0 0)"/></svg>