<svg id="Layer_1" data-name="Layer 1" xmlns="http://www.w3.org/2000/svg" viewBox="0 0 99.97 51.28"><defs><style>.cls-1{fill:#1a1a18;}.cls-2{fill:#cd1316;}</style></defs><title>kpl_foto_price_small</title><path class="cls-1" d="M14.7,8.95c-2.24,0-2.66-1.32-2.57-2.82h1.81c0,.83,0,1.52,1,1.52a.87.87,0,0,0,.91-1c0-1.56-3.65-1.66-3.65-4.23,0-1.36.65-2.43,2.85-2.43,1.76,0,2.64.79,2.52,2.6H15.85c0-.65-.11-1.31-.84-1.31a.84.84,0,0,0-.94.92c0,1.64,3.65,1.5,3.65,4.22C17.72,8.68,16.08,8.95,14.7,8.95Z"/><path class="cls-1" d="M19,8.8V.14H21.9L23.25,6h0L24.71.14h2.82V8.8H25.77V2.12h0L24.08,8.8H22.35L20.77,2.12h0V8.8Z"/><path class="cls-1" d="M28.35,8.8,30.75.14h2.39L35.49,8.8H33.58L33.1,6.88H30.63L30.14,8.8Zm3.49-7h0L31,5.55h1.73Z"/><path class="cls-1" d="M36.36,8.8V.14h1.81V7.36h2.71V8.8Z"/><path class="cls-1" d="M41.69,8.8V.14H43.5V7.36h2.71V8.8Z"/><path class="cls-1" d="M11.75,16.32l1.8,5.77H13l-.46-1.52H10.29l-.46,1.52H9.32l1.82-5.77Zm.66,3.82-1-3.26h0l-1,3.26Z"/><path class="cls-1" d="M14.21,22.09V16.32h1.61c.9,0,1.37.37,1.37,1.38,0,.7-.11,1.18-.84,1.38v0c.76.16,1,.66,1,1.39,0,1-.5,1.61-1.46,1.61Zm1.5-3.21c.74,0,1-.5,1-1.16,0-1-.53-1-.93-1h-1v2.13Zm-1,2.77h.82c.85,0,1.25-.29,1.25-1.14,0-.51-.15-1.21-1-1.21h-1Z"/><path class="cls-1" d="M19.89,19.2c0-1.56,0-3,1.74-3,1.4,0,1.42,1.15,1.42,1.67h-.51c0-.64-.18-1.24-.91-1.24-1.22,0-1.23,1-1.23,2.57s0,2.57,1.23,2.57c.66,0,.91-.59.92-1.33h.54c0,.42-.1,1.77-1.46,1.77C19.91,22.2,19.89,20.76,19.89,19.2Z"/><path class="cls-1" d="M26,16.32l1.8,5.77h-.54l-.46-1.52H24.51l-.46,1.52h-.51l1.82-5.77Zm.66,3.82-1-3.26h0l-1,3.26Z"/><path class="cls-1" d="M28.48,21.48h.59v.61h-.59Z"/><path class="cls-1" d="M34.59,22.09H31.75v-.45c1.24-1.92,2.32-3.2,2.32-3.94s-.47-.84-.91-.84a.9.9,0,0,0-.91,1h-.48a1.31,1.31,0,0,1,1.39-1.45c.65,0,1.42.21,1.42,1.16s-.41,1.27-2.27,4.07h2.28Z"/><path class="cls-1" d="M38.19,18.7v1.21c0,1,0,2.27-1.42,2.27S35.34,21,35.34,19.91V18.7c0-1,0-2.27,1.42-2.27S38.19,17.65,38.19,18.7Zm-2.33,1.7c0,1.26.55,1.35.91,1.35s.91-.1.91-1.35V18.21c0-1.25-.55-1.35-.91-1.35s-.91.1-.91,1.35Z"/><path class="cls-1" d="M40.89,22.09V16.32h.87l1.7,5.21h0l1.68-5.21H46v5.77h-.51V16.81h0l-1.7,5.28h-.59l-1.74-5.28h0v5.28Z"/><path class="cls-1" d="M48.38,19.43H46.72v-.26c.72-1.12,1.35-1.87,1.35-2.3s-.28-.49-.53-.49A.52.52,0,0,0,47,17h-.28a.76.76,0,0,1,.81-.84c.38,0,.83.12.83.68s-.24.74-1.33,2.38h1.33Z"/><path class="cls-1" d="M2.79,38.72v-1.5h-1l.38-1.64.64,0v-.42c0-3,1.3-4.46,3.86-4.46,2.76,0,3.68,1.26,3.68,3.72H7.92c0-1-.24-1.52-1.18-1.52-1.1,0-1.28.76-1.28,2v.66h3.2l-.38,1.66H5.44v1.5h2.5L7.56,40.4H5.46v.5C5.46,42.42,5.7,43,6.8,43,7.74,43,8,42.6,8,41.46H10.4c0,2.54-1.12,3.7-3.7,3.7-2.92,0-3.88-1.3-3.88-4.24V40.4h-1l.38-1.68Z"/><path class="cls-1" d="M15.47,38.86c3.36-7.9,3.36-7.94,3.38-8h3.7v8.62h1.1v2.16h-1.1v3.18H19.79V41.68H15.47Zm4.56.66.18-6.66h0l-2.54,6.66Z"/><path class="cls-1" d="M24.15,44.86V42.4c4.4-5.86,5.32-6.54,5.32-8.28,0-.7-.26-1.36-1.06-1.36-1.16,0-1.22,1.1-1.22,2H24.37c-.2-2.6,1.26-4,3.84-4,2.42,0,4.08,1,4.08,3.6,0,3.14-3.66,6.7-5.18,8.38h5.32v2.16Z"/><path class="cls-1" d="M33,44.86V42.4c4.4-5.86,5.32-6.54,5.32-8.28,0-.7-.26-1.36-1.06-1.36-1.16,0-1.22,1.1-1.22,2H33.25c-.2-2.6,1.26-4,3.84-4,2.42,0,4.08,1,4.08,3.6,0,3.14-3.66,6.7-5.18,8.38h5.32v2.16Z"/><path class="cls-1" d="M43,42.22h2.62L44.09,46.8H42.17Z"/><path class="cls-1" d="M56.11,40.26h-10V38.68h10Z"/><rect class="cls-2" x="-2.19" y="38.94" width="56.74" height="1" transform="translate(-13.63 13.82) rotate(-23.66)"/><path class="cls-2" d="M59.13,36V33.49c4.4-5.86,5.32-6.54,5.32-8.28,0-.7-.26-1.36-1.06-1.36-1.16,0-1.22,1.1-1.22,2H59.35c-.2-2.6,1.26-4,3.84-4,2.42,0,4.08,1,4.08,3.6,0,3.14-3.66,6.7-5.18,8.38h5.32V36Z"/><path class="cls-2" d="M71.15,32.67a1.91,1.91,0,0,0,.2,1,.91.91,0,0,0,.84.44c1.4,0,1.24-1.14,1.24-4.46a3.14,3.14,0,0,1-2.32.92c-2.14,0-3-1.92-3-3.78,0-2.74.84-5,4-5,4.14,0,4.12,3.3,4.12,7.22,0,3.44-.06,7.1-4.14,7.1-2.42,0-3.82-.82-3.76-3.46Zm1-4c1.2,0,1.26-1.62,1.26-2.48s0-2.42-1.24-2.42S71,25.35,71,26.21,71,28.63,72.17,28.63Z"/><path class="cls-2" d="M80,32.67a1.91,1.91,0,0,0,.2,1,.91.91,0,0,0,.84.44c1.4,0,1.24-1.14,1.24-4.46a3.14,3.14,0,0,1-2.32.92c-2.14,0-3-1.92-3-3.78,0-2.74.84-5,4-5,4.14,0,4.12,3.3,4.12,7.22,0,3.44-.06,7.1-4.14,7.1-2.42,0-3.82-.82-3.76-3.46Zm1-4c1.2,0,1.26-1.62,1.26-2.48s0-2.42-1.24-2.42-1.22,1.62-1.22,2.48S79.85,28.63,81,28.63Z"/><path class="cls-2" d="M86.85,33.31h2.62l-1.52,4.58H86Z"/><path class="cls-2" d="M100,31.35H90V29.77h10Z"/></svg>