<svg id="Layer_1" data-name="Layer 1" xmlns="http://www.w3.org/2000/svg" viewBox="0 0 107.22 51.28"><defs><style>.cls-1{fill:#1a1a18;}.cls-2{fill:#cd1316;}</style></defs><title>kpl_foto_price_large</title><path class="cls-1" d="M13.35,8.8V.14h1.81V7.36h2.71V8.8Z"/><path class="cls-1" d="M18,8.8,20.41.14h2.39L25.15,8.8H23.24l-.48-1.92H20.29L19.8,8.8Zm3.49-7h0l-.83,3.74h1.73Z"/><path class="cls-1" d="M27.78,8.8H26V.14h3.35c1.24,0,2,.79,2,2.27a1.87,1.87,0,0,1-1.61,2.12v0a1.54,1.54,0,0,1,1.57,1.7,11.87,11.87,0,0,0,.2,2.54H29.73a4,4,0,0,1-.19-1.68c0-1,.1-1.91-1.3-1.91h-.47Zm0-4.92h.8c.72,0,.92-.72.92-1.27,0-.83-.35-1.14-.92-1.14h-.8Z"/><path class="cls-1" d="M36.63,2.81c0-.8-.12-1.51-1.08-1.51-1.13,0-1.13,1.52-1.13,3.2,0,2.71.26,3.19,1.29,3.19a2.85,2.85,0,0,0,.9-.17V5.6h-1V4.27h2.79V8.66A16.6,16.6,0,0,1,36,8.95c-3,0-3.39-1.26-3.39-4.54,0-2.18.11-4.4,3.07-4.4a2.47,2.47,0,0,1,2.77,2.81Z"/><path class="cls-1" d="M40,8.8V.14h4.73V1.47H41.82V3.61H44.5V4.94H41.82V7.47h3V8.8Z"/><path class="cls-1" d="M10,16.32l1.8,5.77h-.54l-.46-1.52H8.51l-.46,1.52H7.54l1.82-5.77Zm.66,3.82-1-3.26h0l-1,3.26Z"/><path class="cls-1" d="M12.43,22.09V16.32H14c.9,0,1.37.37,1.37,1.38,0,.7-.11,1.18-.84,1.38v0c.76.16,1,.66,1,1.39,0,1-.5,1.61-1.46,1.61Zm1.5-3.21c.74,0,1-.5,1-1.16,0-1-.53-1-.93-1h-1v2.13Zm-1,2.77h.82c.85,0,1.25-.29,1.25-1.14,0-.51-.15-1.21-1-1.21h-1Z"/><path class="cls-1" d="M18.12,19.2c0-1.56,0-3,1.74-3,1.4,0,1.42,1.15,1.42,1.67h-.51c0-.64-.18-1.24-.91-1.24-1.22,0-1.23,1-1.23,2.57s0,2.57,1.23,2.57c.66,0,.91-.59.92-1.33h.54c0,.42-.1,1.77-1.46,1.77C18.13,22.2,18.12,20.76,18.12,19.2Z"/><path class="cls-1" d="M24.2,16.32,26,22.09h-.54L25,20.57H22.73l-.46,1.52h-.51l1.82-5.77Zm.66,3.82-1-3.26h0l-1,3.26Z"/><path class="cls-1" d="M26.7,21.48h.59v.61H26.7Z"/><path class="cls-1" d="M30.38,17.39a4.79,4.79,0,0,0,1-.87h.45v5.57h-.48V17.16a7.19,7.19,0,0,1-1,.78Z"/><path class="cls-1" d="M36.37,22.09H33.53v-.45c1.24-1.92,2.32-3.2,2.32-3.94s-.47-.84-.91-.84a.9.9,0,0,0-.91,1h-.48a1.31,1.31,0,0,1,1.39-1.45c.65,0,1.42.21,1.42,1.16s-.41,1.27-2.27,4.07h2.28Z"/><path class="cls-1" d="M40,18.7v1.21c0,1,0,2.27-1.42,2.27S37.12,21,37.12,19.91V18.7c0-1,0-2.27,1.42-2.27S40,17.65,40,18.7Zm-2.33,1.7c0,1.26.55,1.35.91,1.35s.91-.1.91-1.35V18.21c0-1.25-.55-1.35-.91-1.35s-.91.1-.91,1.35Z"/><path class="cls-1" d="M42.66,22.09V16.32h.87l1.7,5.21h0l1.68-5.21h.82v5.77h-.51V16.81h0l-1.7,5.28h-.59l-1.74-5.28h0v5.28Z"/><path class="cls-1" d="M50.16,19.43H48.5v-.26c.72-1.12,1.35-1.87,1.35-2.3s-.28-.49-.53-.49a.52.52,0,0,0-.53.59h-.28a.76.76,0,0,1,.81-.84c.38,0,.83.12.83.68s-.24.74-1.33,2.38h1.33Z"/><path class="cls-1" d="M2.78,38.72v-1.5h-1l.38-1.64.64,0v-.42c0-3,1.3-4.46,3.86-4.46,2.76,0,3.68,1.26,3.68,3.72H7.91c0-1-.24-1.52-1.18-1.52-1.1,0-1.28.76-1.28,2v.66h3.2l-.38,1.66H5.42v1.5h2.5L7.54,40.4H5.45v.5c0,1.52.24,2.14,1.34,2.14C7.73,43,8,42.6,8,41.46h2.42c0,2.54-1.12,3.7-3.7,3.7-2.92,0-3.88-1.3-3.88-4.24V40.4h-1l.38-1.68Z"/><path class="cls-1" d="M20.42,33.92a1.55,1.55,0,0,0-.18-.9.87.87,0,0,0-.8-.38c-1.24,0-1.28.62-1.28,4.16a2.86,2.86,0,0,1,2.24-1c2.6,0,3.1,2.3,3.1,4.44,0,2.9-1.06,4.76-4.2,4.76-3.64,0-3.9-3.12-3.9-6,0-5.56.3-8.34,4.28-8.34,2.12,0,3.7.9,3.68,3.2Zm.26,6.38c0-1.76-.22-2.54-1.28-2.54s-1.18,1-1.18,2.78c0,.82,0,2.46,1.16,2.46C20.34,43,20.68,42.46,20.68,40.3Z"/><path class="cls-1" d="M27.28,41.58a1.91,1.91,0,0,0,.2,1,.91.91,0,0,0,.84.44c1.4,0,1.24-1.14,1.24-4.46a3.14,3.14,0,0,1-2.32.92c-2.14,0-3-1.92-3-3.78,0-2.74.84-5,4-5,4.14,0,4.12,3.3,4.12,7.22,0,3.44-.06,7.1-4.14,7.1-2.42,0-3.82-.82-3.76-3.46Zm1-4c1.2,0,1.26-1.62,1.26-2.48s0-2.42-1.24-2.42-1.22,1.62-1.22,2.48S27.1,37.54,28.3,37.54Z"/><path class="cls-1" d="M36.16,41.58a1.91,1.91,0,0,0,.2,1,.91.91,0,0,0,.84.44c1.4,0,1.24-1.14,1.24-4.46a3.14,3.14,0,0,1-2.32.92c-2.14,0-3-1.92-3-3.78,0-2.74.84-5,4-5,4.14,0,4.12,3.3,4.12,7.22,0,3.44-.06,7.1-4.14,7.1-2.42,0-3.82-.82-3.76-3.46Zm1-4c1.2,0,1.26-1.62,1.26-2.48s0-2.42-1.24-2.42S36,34.26,36,35.12,36,37.54,37.18,37.54Z"/><path class="cls-1" d="M43,42.22H45.6L44.08,46.8H42.16Z"/><path class="cls-1" d="M56.1,40.26h-10V38.68h10Z"/><rect class="cls-2" x="-2.18" y="38.94" width="56.74" height="1" transform="translate(-13.65 13.86) rotate(-23.71)"/><path class="cls-2" d="M66.58,30C69.94,22,69.94,22,70,22h3.7v8.62h1.1v2.16h-1.1V36H70.9V32.77H66.58Zm4.56.66.18-6.66h0l-2.54,6.66Z"/><path class="cls-2" d="M78.4,32.67a1.91,1.91,0,0,0,.2,1,.91.91,0,0,0,.84.44c1.4,0,1.24-1.14,1.24-4.46a3.14,3.14,0,0,1-2.32.92c-2.14,0-3-1.92-3-3.78,0-2.74.84-5,4-5,4.14,0,4.12,3.3,4.12,7.22,0,3.44-.06,7.1-4.14,7.1-2.42,0-3.82-.82-3.76-3.46Zm1-4c1.2,0,1.26-1.62,1.26-2.48s0-2.42-1.24-2.42-1.22,1.62-1.22,2.48S78.22,28.63,79.42,28.63Z"/><path class="cls-2" d="M87.28,32.67a1.91,1.91,0,0,0,.2,1,.91.91,0,0,0,.84.44c1.4,0,1.24-1.14,1.24-4.46a3.14,3.14,0,0,1-2.32.92c-2.14,0-3-1.92-3-3.78,0-2.74.84-5,4-5,4.14,0,4.12,3.3,4.12,7.22,0,3.44-.06,7.1-4.14,7.1-2.42,0-3.82-.82-3.76-3.46Zm1-4c1.2,0,1.26-1.62,1.26-2.48s0-2.42-1.24-2.42-1.22,1.62-1.22,2.48S87.1,28.63,88.3,28.63Z"/><path class="cls-2" d="M94.1,33.31h2.62L95.2,37.89H93.28Z"/><path class="cls-2" d="M107.22,31.35h-10V29.77h10Z"/></svg>