<svg id="Layer_1" data-name="Layer 1" xmlns="http://www.w3.org/2000/svg" viewBox="0 0 131.19 62.44"><defs><style>.cls-1{fill:#cd1316;}.cls-2{fill:#fff;}</style></defs><title>kpl_foto_rabatt_aktion</title><polygon class="cls-1" points="82.06 50.93 54.86 61.68 34.69 58.98 15.65 62.44 16.74 46.4 0 40.82 12.32 25.16 6.46 12.04 28.64 14.85 40.26 1.82 79.4 9.61 96.25 0 113.05 13.35 131.19 9.41 111.22 30.6 121.86 54.23 82.06 50.93"/><path class="cls-2" d="M28.54,19.73l.17,1.79-2.51.23.83,9-2.26.21-.83-9-2.51.23-.16-1.79Z"/><path class="cls-2" d="M28.84,26.67c-.19-2.06-.05-3.85,2.73-4.11S34.8,24,35,26.11c.22,2.36,0,4.05-2.71,4.3S29.05,29,28.84,26.67Zm4-.49c-.14-1.57-.29-2.35-1.19-2.27s-.9.88-.75,2.45c.21,2.3.45,2.78,1.23,2.7S33.09,28.48,32.87,26.18Z"/><path class="cls-2" d="M40.46,28.74h0a1.77,1.77,0,0,1-.68.77,2.26,2.26,0,0,1-1,.3,1.72,1.72,0,0,1-2-1.47l-.56-6,2.11-.19.48,5.23c.06.67.23,1.15.9,1.09s.75-.57.68-1.24L39.84,22l2.11-.19.56,6c0,.49.12,1,.21,1.49l-2.18.2Z"/><path class="cls-2" d="M45.62,21.42l.09,1h0a1.92,1.92,0,0,1,1.85-1.3L47.76,23C45.9,23,46,24.1,46,24.85L46.42,29l-2.11.19-.69-7.54Z"/><path class="cls-2" d="M56.36,28l-.08-.84h0a1.8,1.8,0,0,1-1.69,1.15c-2.18.2-2.33-2.23-2.47-3.78s-.42-3.86,1.71-4.06a1.85,1.85,0,0,1,1.8.71h0l-.36-4,2.11-.19,1,10.78Zm-.46-3.83c-.14-1.51-.22-2.56-1.09-2.48s-.8,1.13-.66,2.64c.17,1.9.38,2.68,1.14,2.61S56.08,26.11,55.91,24.21Z"/><path class="cls-2" d="M61.69,24.09c.08.9.24,2.24,1.16,2.15.75-.07.83-.8.77-1.43l2.14-.2a2.7,2.7,0,0,1-.63,2,3.17,3.17,0,0,1-2.16.94c-2.72.25-3.23-1.38-3.45-3.73-.19-2.06-.05-3.85,2.73-4.11s3.32,1.55,3.47,4Zm1.82-1.36C63.44,22,63.38,21,62.38,21s-.85,1.22-.79,1.87Z"/><path class="cls-2" d="M70.91,26.71l-1-10.78,5.6-.51.15,1.66-3.35.31.25,2.76,3.2-.29.15,1.66-3.2.29.43,4.71Z"/><path class="cls-2" d="M78.79,18.38l.09,1h0A1.92,1.92,0,0,1,80.76,18l.17,1.88c-1.86,0-1.79,1.13-1.73,1.88l.38,4.11-2.11.19-.69-7.54Z"/><path class="cls-2" d="M88,23.72c0,.46.15.94.23,1.39l-2,.18-.18-1h0a2.1,2.1,0,0,1-1.87,1.33c-1.46.13-2.1-.91-2.22-2.22-.23-2.5,1.69-2.78,3.65-2.93l-.05-.58c-.06-.64-.19-1.1-1-1s-.74.63-.69,1.22l-2.06.19a2.07,2.07,0,0,1,.61-1.91,3.29,3.29,0,0,1,1.93-.67c2.67-.25,3.12.87,3.25,2.25Zm-4-.58c0,.54.2,1.19.89,1.12,1.24-.11.89-1.77.82-2.59C84.74,21.81,84,21.79,84.08,23.13Z"/><path class="cls-2" d="M91.41,18h0a1.77,1.77,0,0,1,.68-.77,2.29,2.29,0,0,1,1-.3,1.72,1.72,0,0,1,2,1.47l.56,6-2.11.19-.48-5.2c-.06-.67-.23-1.18-.9-1.12s-.74.6-.68,1.27l.48,5.2L89.93,25l-.69-7.54,2.11-.19Z"/><path class="cls-2" d="M100.79,19.07c-.1-1.12-.42-1.47-1.08-1.41-.9.08-.9.88-.75,2.45.21,2.3.45,2.77,1.23,2.7s.92-.69.82-1.67l2.11-.19c.19,2-.84,3-2.81,3.21-2.72.25-3.23-1.38-3.45-3.73-.19-2.06-.05-3.85,2.73-4.11,1.94-.18,3.13.59,3.31,2.56Z"/><path class="cls-2" d="M106.49,20c.08.9.24,2.24,1.16,2.15.75-.07.83-.8.77-1.43l2.14-.2a2.7,2.7,0,0,1-.63,2,3.18,3.18,0,0,1-2.16.94c-2.72.25-3.23-1.37-3.45-3.73-.19-2.06-.05-3.85,2.73-4.11s3.32,1.55,3.47,4Zm1.82-1.36c-.07-.73-.13-1.78-1.13-1.69s-.85,1.22-.79,1.87Z"/><path class="cls-2" d="M27,48.82,24.72,49l-1-10.78,4.17-.38c1.54-.14,2.61.75,2.78,2.59a2.34,2.34,0,0,1-1.76,2.83v0a1.92,1.92,0,0,1,2.15,1.94,14.83,14.83,0,0,0,.54,3.14l-2.21.2A5,5,0,0,1,29,46.53c-.12-1.29-.1-2.39-1.83-2.23l-.58.05Zm-.56-6.12,1-.09c.9-.08,1.07-1,1-1.69-.09-1-.56-1.38-1.28-1.31l-1,.09Z"/><path class="cls-2" d="M38.55,46.34c0,.46.15.94.23,1.4l-2,.18-.18-1h0a2.1,2.1,0,0,1-1.87,1.33c-1.46.13-2.1-.91-2.22-2.22-.23-2.5,1.69-2.78,3.65-2.93l-.05-.58c-.06-.64-.19-1.1-1-1s-.74.63-.69,1.22l-2.06.19A2.07,2.07,0,0,1,33,41,3.29,3.29,0,0,1,35,40.33c2.67-.25,3.12.87,3.25,2.25Zm-4-.58c0,.54.2,1.19.89,1.12,1.24-.11.89-1.77.82-2.59C35.24,44.43,34.46,44.41,34.58,45.76Z"/><path class="cls-2" d="M39.44,36.8l2.11-.19.36,4h0a1.85,1.85,0,0,1,1.64-1c2.12-.19,2.28,2.16,2.42,3.68s.44,4-1.74,4.17a1.8,1.8,0,0,1-1.87-.82h0l.08.84-2,.18Zm4.49,6.59c-.14-1.51-.22-2.56-1.13-2.47S42,42,42.18,43.55c.17,1.9.38,2.68,1.1,2.61S44.1,45.29,43.93,43.39Z"/><path class="cls-2" d="M53.49,45c0,.46.15.94.23,1.39l-2,.18-.18-1h0a2.1,2.1,0,0,1-1.87,1.33c-1.46.13-2.1-.91-2.22-2.22-.23-2.5,1.69-2.78,3.65-2.93l-.05-.58c-.06-.64-.19-1.1-1-1s-.74.63-.69,1.22l-2.06.19A2.08,2.08,0,0,1,48,39.63,3.29,3.29,0,0,1,49.89,39c2.67-.25,3.12.87,3.25,2.25Zm-4-.58c0,.54.2,1.19.89,1.12,1.24-.11.89-1.77.82-2.59C50.18,43.06,49.4,43,49.52,44.38Z"/><path class="cls-2" d="M53.82,38.75l.85-.08-.11-1.19,2-1.14.2,2.14,1.09-.1.12,1.3-1.09.1.37,4c.05.57.07.94.76.88a1.51,1.51,0,0,0,.37-.06l.12,1.3a8.56,8.56,0,0,1-1.08.18c-1.82.17-2.17-1-2.21-1.48L54.79,40l-.85.08Z"/><path class="cls-2" d="M58,38.37l.85-.08-.11-1.19,2-1.13.2,2.14L62,38l.12,1.3-1.09.1.37,4c.05.57.07.94.76.88a1.45,1.45,0,0,0,.37-.06l.12,1.3a8.51,8.51,0,0,1-1.08.18c-1.82.17-2.17-1-2.21-1.48l-.43-4.65-.85.08Z"/><path class="cls-2" d="M66.71,40.34l.14,1.52-3.66.34-.14-1.52Z"/><path class="cls-2" d="M67.93,45.06l2-11.06,3-.27,3.92,10.51-2.37.22-.82-2.34-3.08.28-.39,2.45Zm3.55-9.11h0l-.6,4.76,2.15-.2Z"/><path class="cls-2" d="M77.73,44.16l-1-10.78,2.11-.19.59,6.42h0l1.6-3.36,2.2-.2L81.44,39.6l2.76,4-2.37.22-2.33-3.93h0L79.83,44Z"/><path class="cls-2" d="M83.7,36l.85-.08-.11-1.19,2-1.14.2,2.14,1.09-.1.12,1.3-1.09.1.37,4c.05.57.07.94.76.88a1.47,1.47,0,0,0,.37-.06l.12,1.3a8.56,8.56,0,0,1-1.08.18c-1.82.17-2.17-1-2.21-1.48l-.43-4.65-.85.08Z"/><path class="cls-2" d="M90.69,32.09l.15,1.66-2.11.19-.15-1.66Zm1,10.78-2.11.19-.69-7.54L91,35.33Z"/><path class="cls-2" d="M93,38.85c-.19-2.06-.05-3.85,2.73-4.11s3.24,1.48,3.43,3.54c.22,2.36,0,4.05-2.71,4.3S93.23,41.21,93,38.85Zm4-.49c-.14-1.57-.29-2.35-1.19-2.27s-.9.88-.75,2.45c.21,2.3.45,2.78,1.23,2.7S97.26,40.66,97,38.36Z"/><path class="cls-2" d="M102.5,35h0a1.76,1.76,0,0,1,.68-.77,2.28,2.28,0,0,1,1-.3,1.72,1.72,0,0,1,2,1.47l.56,6-2.11.19-.48-5.2c-.06-.67-.23-1.18-.9-1.12s-.74.6-.68,1.27l.48,5.2L101,42l-.69-7.54,2.11-.19Z"/></svg>